<svg width="508" height="164" viewBox="0 0 508 164" fill="none" xmlns="http://www.w3.org/2000/svg">
<g filter="url(#filter0_di_79_422)">
<rect x="4.5" y="-0.000427246" width="499" height="156" rx="8" fill="white" shape-rendering="crispEdges"/>
<g filter="url(#filter1_f_79_422)">
<path d="M106.285 90.5516H90.7171L88.1411 97.9996H79.9091L93.9651 58.8556H103.093L117.149 97.9996H108.861L106.285 90.5516ZM104.157 84.2796L98.5011 67.9276L92.8451 84.2796H104.157ZM154.827 58.9116V97.9996H146.987V81.3676H130.243V97.9996H122.403V58.9116H130.243V74.9836H146.987V58.9116H154.827ZM191.048 71.0076C191.048 73.0982 190.544 75.0582 189.536 76.8876C188.565 78.7169 187.016 80.1916 184.888 81.3116C182.797 82.4316 180.146 82.9916 176.936 82.9916H170.384V97.9996H162.544V58.9116H176.936C179.96 58.9116 182.536 59.4342 184.664 60.4796C186.792 61.5249 188.378 62.9622 189.424 64.7916C190.506 66.6209 191.048 68.6929 191.048 71.0076ZM176.6 76.6636C178.765 76.6636 180.37 76.1782 181.416 75.2076C182.461 74.1996 182.984 72.7996 182.984 71.0076C182.984 67.1996 180.856 65.2956 176.6 65.2956H170.384V76.6636H176.6ZM239.246 81.4796H228.662V92.3436H221.27V81.4796H210.686V74.6476H221.27V63.7836H228.662V74.6476H239.246V81.4796ZM296.148 58.9116L281.812 97.9996H272.292L257.956 58.9116H266.356L277.108 89.9916L287.804 58.9116H296.148ZM308.688 58.9116V97.9996H300.848V58.9116H308.688ZM338.498 97.9996L324.274 80.5836V97.9996H316.434V58.9116H324.274V76.4396L338.498 58.9116H347.962L331.834 78.2876L348.41 97.9996H338.498ZM371.711 98.3916C368.052 98.3916 364.692 97.5329 361.631 95.8156C358.57 94.0982 356.143 91.7276 354.351 88.7036C352.559 85.6422 351.663 82.1889 351.663 78.3436C351.663 74.5356 352.559 71.1196 354.351 68.0956C356.143 65.0342 358.57 62.6449 361.631 60.9276C364.692 59.2102 368.052 58.3516 371.711 58.3516C375.407 58.3516 378.767 59.2102 381.791 60.9276C384.852 62.6449 387.26 65.0342 389.015 68.0956C390.807 71.1196 391.703 74.5356 391.703 78.3436C391.703 82.1889 390.807 85.6422 389.015 88.7036C387.26 91.7276 384.852 94.0982 381.791 95.8156C378.73 97.5329 375.37 98.3916 371.711 98.3916ZM371.711 91.3916C374.063 91.3916 376.135 90.8689 377.927 89.8236C379.719 88.7409 381.119 87.2102 382.127 85.2316C383.135 83.2529 383.639 80.9569 383.639 78.3436C383.639 75.7302 383.135 73.4529 382.127 71.5116C381.119 69.5329 379.719 68.0209 377.927 66.9756C376.135 65.9302 374.063 65.4076 371.711 65.4076C369.359 65.4076 367.268 65.9302 365.439 66.9756C363.647 68.0209 362.247 69.5329 361.239 71.5116C360.231 73.4529 359.727 75.7302 359.727 78.3436C359.727 80.9569 360.231 83.2529 361.239 85.2316C362.247 87.2102 363.647 88.7409 365.439 89.8236C367.268 90.8689 369.359 91.3916 371.711 91.3916ZM417.696 97.9996L409.072 82.7676H405.376V97.9996H397.536V58.9116H412.208C415.232 58.9116 417.808 59.4529 419.936 60.5356C422.064 61.5809 423.651 63.0182 424.696 64.8476C425.779 66.6396 426.32 68.6556 426.32 70.8956C426.32 73.4716 425.573 75.8049 424.08 77.8956C422.587 79.9489 420.365 81.3676 417.416 82.1516L426.768 97.9996H417.696ZM405.376 76.8876H411.928C414.056 76.8876 415.643 76.3836 416.688 75.3756C417.733 74.3302 418.256 72.8929 418.256 71.0636C418.256 69.2716 417.733 67.8902 416.688 66.9196C415.643 65.9116 414.056 65.4076 411.928 65.4076H405.376V76.8876Z" fill="#222D4A" fill-opacity="0.6"/>
</g>
</g>
<defs>
<filter id="filter0_di_79_422" x="0.5" y="-0.000427246" width="507" height="164" filterUnits="userSpaceOnUse" color-interpolation-filters="sRGB">
<feFlood flood-opacity="0" result="BackgroundImageFix"/>
<feColorMatrix in="SourceAlpha" type="matrix" values="0 0 0 0 0 0 0 0 0 0 0 0 0 0 0 0 0 0 127 0" result="hardAlpha"/>
<feOffset dy="4"/>
<feGaussianBlur stdDeviation="2"/>
<feComposite in2="hardAlpha" operator="out"/>
<feColorMatrix type="matrix" values="0 0 0 0 0 0 0 0 0 0 0 0 0 0 0 0 0 0 0.25 0"/>
<feBlend mode="normal" in2="BackgroundImageFix" result="effect1_dropShadow_79_422"/>
<feBlend mode="normal" in="SourceGraphic" in2="effect1_dropShadow_79_422" result="shape"/>
<feColorMatrix in="SourceAlpha" type="matrix" values="0 0 0 0 0 0 0 0 0 0 0 0 0 0 0 0 0 0 127 0" result="hardAlpha"/>
<feOffset dy="4"/>
<feGaussianBlur stdDeviation="7.75"/>
<feComposite in2="hardAlpha" operator="arithmetic" k2="-1" k3="1"/>
<feColorMatrix type="matrix" values="0 0 0 0 0 0 0 0 0 0 0 0 0 0 0 0 0 0 0.08 0"/>
<feBlend mode="normal" in2="shape" result="effect2_innerShadow_79_422"/>
</filter>
<filter id="filter1_f_79_422" x="75.9092" y="54.3516" width="354.859" height="48.04" filterUnits="userSpaceOnUse" color-interpolation-filters="sRGB">
<feFlood flood-opacity="0" result="BackgroundImageFix"/>
<feBlend mode="normal" in="SourceGraphic" in2="BackgroundImageFix" result="shape"/>
<feGaussianBlur stdDeviation="2" result="effect1_foregroundBlur_79_422"/>
</filter>
</defs>
</svg>
