<svg width="274" height="84" viewBox="0 0 274 84" fill="none" xmlns="http://www.w3.org/2000/svg">
<path d="M41.25 71.9995L21 62.1001L0.75 71.9995V50.3999H41.25V71.9995Z" fill="#FDB813"/>
<path d="M18.75 0L0.749999 18L0.75 2.59342e-05L18.75 0Z" fill="#FDB813"/>
<rect x="23.25" width="18" height="45.9" fill="#1E6AAE"/>
<path d="M18.75 45.8999H0.75V24.396L18.75 6.396V45.8999Z" fill="#1E6AAE"/>
<path d="M73.74 50.315C70.05 50.315 67.02 49.445 64.65 47.705C62.28 45.935 61.005 43.415 60.825 40.145H70.23C70.32 41.255 70.65 42.065 71.22 42.575C71.79 43.085 72.525 43.34 73.425 43.34C74.235 43.34 74.895 43.145 75.405 42.755C75.945 42.335 76.215 41.765 76.215 41.045C76.215 40.115 75.78 39.395 74.91 38.885C74.04 38.375 72.63 37.805 70.68 37.175C68.61 36.485 66.93 35.825 65.64 35.195C64.38 34.535 63.27 33.59 62.31 32.36C61.38 31.1 60.915 29.465 60.915 27.455C60.915 25.415 61.425 23.675 62.445 22.235C63.465 20.765 64.875 19.655 66.675 18.905C68.475 18.155 70.515 17.78 72.795 17.78C76.485 17.78 79.425 18.65 81.615 20.39C83.835 22.1 85.02 24.515 85.17 27.635H75.585C75.555 26.675 75.255 25.955 74.685 25.475C74.145 24.995 73.44 24.755 72.57 24.755C71.91 24.755 71.37 24.95 70.95 25.34C70.53 25.73 70.32 26.285 70.32 27.005C70.32 27.605 70.545 28.13 70.995 28.58C71.475 29 72.06 29.375 72.75 29.705C73.44 30.005 74.46 30.395 75.81 30.875C77.82 31.565 79.47 32.255 80.76 32.945C82.08 33.605 83.205 34.55 84.135 35.78C85.095 36.98 85.575 38.51 85.575 40.37C85.575 42.26 85.095 43.955 84.135 45.455C83.205 46.955 81.84 48.14 80.04 49.01C78.27 49.88 76.17 50.315 73.74 50.315ZM98.4953 18.275V50H89.6753V18.275H98.4953ZM128.583 28.85C128.583 30.77 128.133 32.525 127.233 34.115C126.363 35.675 125.028 36.935 123.228 37.895C121.458 38.825 119.283 39.29 116.703 39.29H112.338V50H103.518V18.275H116.703C119.253 18.275 121.413 18.725 123.183 19.625C124.983 20.525 126.333 21.77 127.233 23.36C128.133 24.95 128.583 26.78 128.583 28.85ZM115.848 32.27C118.338 32.27 119.583 31.13 119.583 28.85C119.583 26.54 118.338 25.385 115.848 25.385H112.338V32.27H115.848ZM148.191 50L141.891 38.3H140.946V50H132.126V18.275H146.031C148.581 18.275 150.741 18.725 152.511 19.625C154.281 20.495 155.616 21.71 156.516 23.27C157.416 24.8 157.866 26.525 157.866 28.445C157.866 30.605 157.266 32.51 156.066 34.16C154.896 35.78 153.171 36.935 150.891 37.625L158.046 50H148.191ZM140.946 32.27H145.311C146.511 32.27 147.411 31.985 148.011 31.415C148.611 30.845 148.911 30.02 148.911 28.94C148.911 27.92 148.596 27.125 147.966 26.555C147.366 25.955 146.481 25.655 145.311 25.655H140.946V32.27ZM170.697 25.34V30.515H180.822V37.22H170.697V42.935H182.172V50H161.877V18.275H182.172V25.34H170.697ZM198.501 50.315C194.811 50.315 191.781 49.445 189.411 47.705C187.041 45.935 185.766 43.415 185.586 40.145H194.991C195.081 41.255 195.411 42.065 195.981 42.575C196.551 43.085 197.286 43.34 198.186 43.34C198.996 43.34 199.656 43.145 200.166 42.755C200.706 42.335 200.976 41.765 200.976 41.045C200.976 40.115 200.541 39.395 199.671 38.885C198.801 38.375 197.391 37.805 195.441 37.175C193.371 36.485 191.691 35.825 190.401 35.195C189.141 34.535 188.031 33.59 187.071 32.36C186.141 31.1 185.676 29.465 185.676 27.455C185.676 25.415 186.186 23.675 187.206 22.235C188.226 20.765 189.636 19.655 191.436 18.905C193.236 18.155 195.276 17.78 197.556 17.78C201.246 17.78 204.186 18.65 206.376 20.39C208.596 22.1 209.781 24.515 209.931 27.635H200.346C200.316 26.675 200.016 25.955 199.446 25.475C198.906 24.995 198.201 24.755 197.331 24.755C196.671 24.755 196.131 24.95 195.711 25.34C195.291 25.73 195.081 26.285 195.081 27.005C195.081 27.605 195.306 28.13 195.756 28.58C196.236 29 196.821 29.375 197.511 29.705C198.201 30.005 199.221 30.395 200.571 30.875C202.581 31.565 204.231 32.255 205.521 32.945C206.841 33.605 207.966 34.55 208.896 35.78C209.856 36.98 210.336 38.51 210.336 40.37C210.336 42.26 209.856 43.955 208.896 45.455C207.966 46.955 206.601 48.14 204.801 49.01C203.031 49.88 200.931 50.315 198.501 50.315ZM238.331 18.275V25.295H229.871V50H221.051V25.295H212.681V18.275H238.331ZM261.664 44.825H250.414L248.704 50H239.434L250.999 18.275H261.169L272.689 50H263.374L261.664 44.825ZM259.459 38.075L256.039 27.815L252.664 38.075H259.459Z" fill="#1E6AAE"/>
</svg>
