<svg width="20" height="20" viewBox="0 0 20 20" fill="none" xmlns="http://www.w3.org/2000/svg">
<path fill-rule="evenodd" clip-rule="evenodd" d="M1.85039 9.99999C1.85039 7.99114 1.85065 6.45417 1.91178 5.26228C1.9737 4.05473 2.09545 3.30104 2.2896 2.81568C2.45901 2.39214 2.66958 2.20038 2.99597 2.07345C3.39669 1.91761 4.00424 1.84999 5.00039 1.84999C5.9742 1.84999 6.65363 1.91173 7.1285 2.01725C7.60186 2.12244 7.80488 2.25656 7.89935 2.35103C7.98359 2.43528 8.05499 2.56044 8.09946 2.82723C8.14798 3.11838 8.15039 3.47843 8.15039 3.99999C8.15039 4.46944 8.53095 4.84999 9.00039 4.84999C9.46983 4.84999 9.85039 4.46944 9.85039 3.99999L9.8504 3.95742V3.95741C9.85046 3.49111 9.85054 2.99303 9.77633 2.54775C9.69579 2.06455 9.51719 1.56471 9.10143 1.14895C8.6959 0.743424 8.14893 0.502545 7.49728 0.357735C6.84715 0.213262 6.02659 0.149994 5.00039 0.149994C3.99654 0.149994 3.1041 0.207374 2.37981 0.48904C1.58121 0.799609 1.04177 1.35785 0.711185 2.18431C0.405329 2.94895 0.27708 3.94526 0.214006 5.17521C0.150391 6.41571 0.150391 7.99583 0.150391 9.97552V9.97571V9.99999V10.0243V10.0245C0.150391 12.0042 0.150391 13.5843 0.214006 14.8248C0.27708 16.0547 0.405329 17.051 0.711185 17.8157C1.04177 18.6421 1.58121 19.2004 2.37981 19.5109C3.1041 19.7926 3.99654 19.85 5.00039 19.85C6.02659 19.85 6.84715 19.7867 7.49728 19.6423C8.14893 19.4974 8.6959 19.2566 9.10143 18.851C9.51719 18.4353 9.69579 17.9354 9.77633 17.4522C9.85054 17.007 9.85046 16.5089 9.8504 16.0426V16.0426L9.85039 16C9.85039 15.5306 9.46983 15.15 9.00039 15.15C8.53095 15.15 8.15039 15.5306 8.15039 16C8.15039 16.5216 8.14798 16.8816 8.09946 17.1728C8.05499 17.4395 7.98359 17.5647 7.89935 17.649C7.80488 17.7434 7.60186 17.8775 7.1285 17.9827C6.65363 18.0883 5.9742 18.15 5.00039 18.15C4.00424 18.15 3.39669 18.0824 2.99597 17.9265C2.66958 17.7996 2.45901 17.6078 2.2896 17.1843C2.09545 16.699 1.9737 15.9453 1.91178 14.7377C1.85065 13.5458 1.85039 12.0088 1.85039 9.99999ZM15.6014 5.39895C15.2695 5.06701 14.7313 5.06701 14.3994 5.39895C14.0674 5.7309 14.0674 6.26909 14.3994 6.60103L16.9483 9.14999H9.00039C8.53095 9.14999 8.15039 9.53055 8.15039 9.99999C8.15039 10.4694 8.53095 10.85 9.00039 10.85H16.9483L14.3994 13.399C14.0674 13.7309 14.0674 14.2691 14.3994 14.601C14.7313 14.933 15.2695 14.933 15.6014 14.601L19.6014 10.601C19.9334 10.2691 19.9334 9.7309 19.6014 9.39895L15.6014 5.39895Z" fill="#FF3B30"/>
</svg>
