<svg width="137" height="36" viewBox="0 0 137 36" fill="none" xmlns="http://www.w3.org/2000/svg">
<path d="M20.25 35.9999L10.125 31.0497L0 35.9999V25.2001H20.25V35.9999Z" fill="#FDB813"/>
<path d="M9 0L-3.93402e-07 9L0 1.29671e-05L9 0Z" fill="#FDB813"/>
<rect x="11.25" width="9" height="22.95" fill="#EDF6FA"/>
<path d="M9 22.95H0V12.198L9 3.198V22.95Z" fill="#EDF6FA"/>
<path d="M36.495 25.1575C34.65 25.1575 33.135 24.7225 31.95 23.8525C30.765 22.9675 30.1275 21.7075 30.0375 20.0725H34.74C34.785 20.6275 34.95 21.0325 35.235 21.2875C35.52 21.5425 35.8875 21.67 36.3375 21.67C36.7425 21.67 37.0725 21.5725 37.3275 21.3775C37.5975 21.1675 37.7325 20.8825 37.7325 20.5225C37.7325 20.0575 37.515 19.6975 37.08 19.4425C36.645 19.1875 35.94 18.9025 34.965 18.5875C33.93 18.2425 33.09 17.9125 32.445 17.5975C31.815 17.2675 31.26 16.795 30.78 16.18C30.315 15.55 30.0825 14.7325 30.0825 13.7275C30.0825 12.7075 30.3375 11.8375 30.8475 11.1175C31.3575 10.3825 32.0625 9.8275 32.9625 9.4525C33.8625 9.0775 34.8825 8.89 36.0225 8.89C37.8675 8.89 39.3375 9.325 40.4325 10.195C41.5425 11.05 42.135 12.2575 42.21 13.8175H37.4175C37.4025 13.3375 37.2525 12.9775 36.9675 12.7375C36.6975 12.4975 36.345 12.3775 35.91 12.3775C35.58 12.3775 35.31 12.475 35.1 12.67C34.89 12.865 34.785 13.1425 34.785 13.5025C34.785 13.8025 34.8975 14.065 35.1225 14.29C35.3625 14.5 35.655 14.6875 36 14.8525C36.345 15.0025 36.855 15.1975 37.53 15.4375C38.535 15.7825 39.36 16.1275 40.005 16.4725C40.665 16.8025 41.2275 17.275 41.6925 17.89C42.1725 18.49 42.4125 19.255 42.4125 20.185C42.4125 21.13 42.1725 21.9775 41.6925 22.7275C41.2275 23.4775 40.545 24.07 39.645 24.505C38.76 24.94 37.71 25.1575 36.495 25.1575ZM48.8726 9.1375V25H44.4626V9.1375H48.8726ZM63.9165 14.425C63.9165 15.385 63.6915 16.2625 63.2415 17.0575C62.8065 17.8375 62.139 18.4675 61.239 18.9475C60.354 19.4125 59.2665 19.645 57.9765 19.645H55.794V25H51.384V9.1375H57.9765C59.2515 9.1375 60.3315 9.3625 61.2165 9.8125C62.1165 10.2625 62.7915 10.885 63.2415 11.68C63.6915 12.475 63.9165 13.39 63.9165 14.425ZM57.549 16.135C58.794 16.135 59.4165 15.565 59.4165 14.425C59.4165 13.27 58.794 12.6925 57.549 12.6925H55.794V16.135H57.549ZM73.7207 25L70.5707 19.15H70.0982V25H65.6882V9.1375H72.6407C73.9157 9.1375 74.9957 9.3625 75.8807 9.8125C76.7657 10.2475 77.4332 10.855 77.8832 11.635C78.3332 12.4 78.5582 13.2625 78.5582 14.2225C78.5582 15.3025 78.2582 16.255 77.6582 17.08C77.0732 17.89 76.2107 18.4675 75.0707 18.8125L78.6482 25H73.7207ZM70.0982 16.135H72.2807C72.8807 16.135 73.3307 15.9925 73.6307 15.7075C73.9307 15.4225 74.0807 15.01 74.0807 14.47C74.0807 13.96 73.9232 13.5625 73.6082 13.2775C73.3082 12.9775 72.8657 12.8275 72.2807 12.8275H70.0982V16.135ZM84.9737 12.67V15.2575H90.0362V18.61H84.9737V21.4675H90.7112V25H80.5637V9.1375H90.7112V12.67H84.9737ZM98.8754 25.1575C97.0304 25.1575 95.5154 24.7225 94.3304 23.8525C93.1454 22.9675 92.5079 21.7075 92.4179 20.0725H97.1204C97.1654 20.6275 97.3304 21.0325 97.6154 21.2875C97.9004 21.5425 98.2679 21.67 98.7179 21.67C99.1229 21.67 99.4529 21.5725 99.7079 21.3775C99.9779 21.1675 100.113 20.8825 100.113 20.5225C100.113 20.0575 99.8954 19.6975 99.4604 19.4425C99.0254 19.1875 98.3204 18.9025 97.3454 18.5875C96.3104 18.2425 95.4704 17.9125 94.8254 17.5975C94.1954 17.2675 93.6404 16.795 93.1604 16.18C92.6954 15.55 92.4629 14.7325 92.4629 13.7275C92.4629 12.7075 92.7179 11.8375 93.2279 11.1175C93.7379 10.3825 94.4429 9.8275 95.3429 9.4525C96.2429 9.0775 97.2629 8.89 98.4029 8.89C100.248 8.89 101.718 9.325 102.813 10.195C103.923 11.05 104.515 12.2575 104.59 13.8175H99.7979C99.7829 13.3375 99.6329 12.9775 99.3479 12.7375C99.0779 12.4975 98.7254 12.3775 98.2904 12.3775C97.9604 12.3775 97.6904 12.475 97.4804 12.67C97.2704 12.865 97.1654 13.1425 97.1654 13.5025C97.1654 13.8025 97.2779 14.065 97.5029 14.29C97.7429 14.5 98.0354 14.6875 98.3804 14.8525C98.7254 15.0025 99.2354 15.1975 99.9104 15.4375C100.915 15.7825 101.74 16.1275 102.385 16.4725C103.045 16.8025 103.608 17.275 104.073 17.89C104.553 18.49 104.793 19.255 104.793 20.185C104.793 21.13 104.553 21.9775 104.073 22.7275C103.608 23.4775 102.925 24.07 102.025 24.505C101.14 24.94 100.09 25.1575 98.8754 25.1575ZM118.791 9.1375V12.6475H114.561V25H110.151V12.6475H105.966V9.1375H118.791ZM130.457 22.4125H124.832L123.977 25H119.342L125.125 9.1375H130.21L135.97 25H131.312L130.457 22.4125ZM129.355 19.0375L127.645 13.9075L125.957 19.0375H129.355Z" fill="#EDF6FA"/>
</svg>
